<svg width="1440" height="375" viewBox="0 0 1440 375" fill="none" xmlns="http://www.w3.org/2000/svg">
<g clip-path="url(#clip0)">
<path d="M1440 374.073H0L721.751 164L1440 374.073Z" fill="#2F2B38"/>
<path d="M720.4 124.517L700.8 143.147H739.2L720.4 124.517Z" fill="#30426B"/>
<path d="M739 161.777V143.147H701V161.777L682 332.358L757.9 332.261L739 161.777Z" fill="#8087E8"/>
<path d="M720 167.405C722.761 167.405 725 165.233 725 162.553C725 159.874 722.761 157.702 720 157.702C717.238 157.702 715 159.874 715 162.553C715 165.233 717.238 167.405 720 167.405Z" fill="#A3EDBA"/>
<path d="M720 164.181L1440 0.853027V373.453L720 164.181Z" fill="#D9DBF8"/>
<path d="M720 164.181L0 0.853027V373.453L720 164.181Z" fill="#D9DBF8"/>
<path d="M831.8 176.041L850.1 168.569L829.2 161.971L831.8 176.041Z" fill="#30426B"/>
<path d="M942.3 187.782L915.6 150.23L921.4 181.183L942.3 187.782Z" fill="#6699A1"/>
<path d="M468.9 178.369L466.3 164.3L449.3 158.963L434.5 192.536L468.9 178.369Z" fill="#78758C"/>
<path d="M978.9 149.454L994.6 192.73L1009.4 159.157L978.9 149.454Z" fill="#A3EDBA"/>
<path d="M600.6 163.718L603.9 181.765L618.8 156.246L600.6 163.718Z" fill="#6699A1"/>
<path d="M553.4 176.526L570.4 181.862L564.7 151.006L553.4 176.526Z" fill="#8087E8"/>
</g>
<defs>
<clipPath id="clip0">
<rect width="1440" height="374" fill="white" transform="translate(0 0.308838)"/>
</clipPath>
</defs>
</svg>
